<svg xmlns="http://www.w3.org/2000/svg" xmlns:xlink="http://www.w3.org/1999/xlink" width="500" zoomAndPan="magnify" viewBox="0 0 375 374.999991" height="500" preserveAspectRatio="xMidYMid meet" version="1.0"><defs><clipPath id="70e24c79c3"><path d="M 112.5 112.5 L 262.5 112.5 L 262.5 262.5 L 112.5 262.5 Z M 112.5 112.5 " clip-rule="nonzero"/></clipPath><clipPath id="b8842e331c"><path d="M 136 126 L 267 126 L 267 267.75 L 136 267.75 Z M 136 126 " clip-rule="nonzero"/></clipPath><clipPath id="af68f91cd9"><path d="M 125 219 L 185 219 L 185 267.75 L 125 267.75 Z M 125 219 " clip-rule="nonzero"/></clipPath></defs><g clip-path="url(#70e24c79c3)"><path fill="#ffffff" d="M 187.5 112.5 C 146.078125 112.5 112.5 146.078125 112.5 187.5 C 112.5 228.921875 146.078125 262.5 187.5 262.5 C 228.921875 262.5 262.5 228.921875 262.5 187.5 C 262.5 146.078125 228.921875 112.5 187.5 112.5 Z M 187.5 256.820312 C 149.214844 256.820312 118.179688 225.785156 118.179688 187.5 C 118.179688 149.214844 149.214844 118.179688 187.5 118.179688 C 225.785156 118.179688 256.820312 149.214844 256.820312 187.5 C 256.820312 225.785156 225.785156 256.820312 187.5 256.820312 Z M 187.5 256.820312 " fill-opacity="1" fill-rule="nonzero"/></g><path fill="#ffffff" d="M 178.699219 224.261719 C 176.816406 224.441406 175.3125 224.648438 173.804688 224.722656 C 165.246094 225.125 158.910156 221.753906 155.070312 213.886719 C 153.847656 211.378906 152.28125 209.015625 150.648438 206.746094 C 149.667969 205.382812 148.296875 204.289062 147.027344 203.152344 L 147.011719 203.136719 C 146.230469 202.449219 146.574219 201.15625 147.605469 200.984375 C 148.8125 200.78125 149.941406 201 151.039062 201.28125 C 154.480469 202.15625 156.6875 204.59375 158.449219 207.511719 C 162.429688 214.109375 169.28125 216.863281 176.691406 214.898438 C 177.949219 214.5625 178.503906 214.019531 178.777344 212.648438 C 179.097656 211.050781 179.53125 209.472656 180 207.863281 C 180.066406 207.625 180.113281 207.386719 180.132812 207.140625 C 180.152344 206.894531 180.144531 206.648438 180.117188 206.402344 C 180.085938 206.160156 180.03125 205.917969 179.953125 205.6875 C 179.875 205.453125 179.769531 205.230469 179.648438 205.015625 C 179.523438 204.804688 179.378906 204.605469 179.214844 204.421875 C 179.050781 204.238281 178.867188 204.074219 178.667969 203.925781 C 178.472656 203.777344 178.261719 203.652344 178.035156 203.550781 C 177.8125 203.445312 177.582031 203.367188 177.339844 203.308594 L 177.300781 203.300781 C 169.609375 201.460938 162.96875 198.035156 158.6875 191.007812 C 156.398438 187.25 155.265625 183.109375 155.324219 178.796875 C 155.390625 173.90625 155.824219 169.003906 156.386719 164.136719 C 156.78125 160.710938 158.367188 157.679688 160.832031 155.214844 C 161.6875 154.355469 161.761719 153.636719 161.347656 152.527344 C 159.652344 147.972656 159.945312 143.414062 161.453125 138.851562 C 161.875 137.5625 162.480469 137.378906 163.710938 137.769531 C 167.519531 138.96875 170.363281 141.445312 172.863281 144.414062 L 172.886719 144.445312 C 173.199219 144.824219 173.5625 145.144531 173.972656 145.414062 C 174.382812 145.683594 174.824219 145.882812 175.296875 146.019531 C 175.769531 146.15625 176.25 146.222656 176.738281 146.214844 C 177.230469 146.207031 177.707031 146.125 178.175781 145.972656 C 186.082031 143.382812 198.078125 143.347656 205.535156 145.914062 C 206.003906 146.070312 206.484375 146.15625 206.980469 146.171875 C 207.472656 146.183594 207.960938 146.125 208.433594 145.988281 C 208.910156 145.855469 209.359375 145.65625 209.773438 145.386719 C 210.1875 145.117188 210.554688 144.792969 210.871094 144.410156 L 210.894531 144.382812 C 213.398438 141.414062 216.253906 138.953125 220.058594 137.753906 C 221.335938 137.347656 221.882812 137.65625 222.285156 138.898438 C 223.773438 143.460938 224.023438 147.996094 222.417969 152.59375 C 222.191406 153.242188 222.199219 154.367188 222.605469 154.777344 C 226.015625 158.238281 227.511719 162.539062 227.890625 167.195312 C 228.257812 171.695312 228.65625 176.273438 228.238281 180.742188 C 227.148438 192.363281 220.082031 199.132812 209.339844 202.496094 C 208.417969 202.785156 207.484375 203.023438 206.53125 203.25 C 206.285156 203.308594 206.046875 203.394531 205.816406 203.5 C 205.585938 203.609375 205.367188 203.742188 205.164062 203.894531 C 204.960938 204.050781 204.777344 204.222656 204.609375 204.417969 C 204.445312 204.609375 204.300781 204.816406 204.175781 205.042969 C 204.054688 205.265625 203.957031 205.5 203.882812 205.742188 C 203.808594 205.984375 203.761719 206.234375 203.742188 206.488281 C 203.71875 206.742188 203.726562 206.996094 203.757812 207.25 C 203.789062 207.5 203.847656 207.75 203.929688 207.988281 C 205.394531 212.230469 205.167969 216.761719 205.148438 221.265625 C 205.140625 222.296875 205.136719 223.335938 205.136719 224.371094 C 205.132812 225.226562 205.050781 226.078125 204.878906 226.917969 C 204.710938 227.757812 204.460938 228.574219 204.132812 229.363281 C 203.804688 230.15625 203.402344 230.90625 202.921875 231.621094 C 202.445312 232.332031 201.90625 232.988281 201.296875 233.59375 C 200.691406 234.199219 200.03125 234.742188 199.316406 235.21875 C 198.605469 235.691406 197.851562 236.09375 197.058594 236.421875 C 196.269531 236.75 195.453125 236.996094 194.609375 237.164062 C 193.769531 237.332031 192.921875 237.414062 192.0625 237.414062 L 191.769531 237.414062 C 190.910156 237.414062 190.0625 237.328125 189.21875 237.164062 C 188.378906 236.996094 187.558594 236.746094 186.765625 236.417969 C 185.972656 236.089844 185.21875 235.6875 184.507812 235.210938 C 183.792969 234.734375 183.132812 234.191406 182.527344 233.585938 C 181.917969 232.976562 181.378906 232.316406 180.898438 231.605469 C 180.421875 230.890625 180.019531 230.136719 179.691406 229.34375 C 179.363281 228.550781 179.117188 227.734375 178.949219 226.890625 C 178.78125 226.050781 178.695312 225.199219 178.695312 224.339844 Z M 178.699219 224.261719 " fill-opacity="1" fill-rule="nonzero"/><g clip-path="url(#b8842e331c)"><path fill="#ffffff" d="M 143.425781 139.46875 C 143.832031 132.878906 145.539062 130.015625 150.449219 127.714844 C 155.730469 125.238281 164.058594 126.390625 173.851562 130.953125 C 178.074219 132.921875 178.503906 132.960938 185.898438 132.089844 C 195.730469 130.929688 208.386719 130.929688 217.460938 132.097656 C 224.324219 132.980469 224.773438 132.9375 229.003906 130.964844 C 242.910156 124.484375 253.890625 124.910156 257.867188 132.078125 C 259.855469 135.65625 260.21875 144.941406 258.683594 152.601562 C 257.832031 156.847656 257.921875 157.375 259.976562 160.164062 C 274.4375 179.765625 264.015625 211.539062 239.238281 223.398438 C 237.339844 224.304688 235.742188 224.867188 234.441406 225.324219 C 230.441406 226.726562 229.226562 227.15625 230.699219 233.621094 C 231.40625 236.726562 232.257812 244.460938 232.59375 250.800781 C 233.199219 262.261719 233.191406 262.34375 231.003906 264.683594 C 228.03125 267.863281 223.742188 267.917969 220.839844 264.808594 C 218.945312 262.785156 218.761719 261.824219 218.761719 254.007812 C 218.761719 242.453125 217.382812 234.777344 214.132812 228.195312 C 210.265625 220.363281 213.128906 217.445312 221.976562 215.695312 C 234.273438 213.257812 243.875 206.28125 249.226562 195.886719 C 254.316406 186.003906 255.082031 172.351562 245.882812 164.046875 C 243.265625 161.1875 243.085938 158.597656 244.953125 150.785156 C 245.648438 147.863281 246.234375 144.097656 246.25 142.410156 C 246.277344 139.753906 246.015625 139.347656 244.238281 139.347656 C 243.113281 139.347656 238.816406 140.851562 234.691406 142.691406 L 228.109375 145.628906 C 227.511719 145.894531 226.839844 145.996094 226.179688 145.925781 C 209.4375 144.160156 193.53125 144.132812 176.707031 145.933594 C 176.046875 146.003906 175.371094 145.902344 174.773438 145.636719 L 168.191406 142.699219 C 164.066406 140.859375 159.773438 139.351562 158.644531 139.351562 C 156.046875 139.351562 156.007812 141.117188 158.378906 151.601562 C 159.824219 158.003906 160.796875 159.433594 156.617188 164.550781 C 150.34375 172.226562 148.777344 181.757812 152.140625 191.773438 C 156.378906 204.394531 166.757812 212.917969 181.347656 215.761719 C 190.144531 217.476562 192.441406 219.714844 189.082031 228.992188 C 186.441406 236.289062 184.765625 238.171875 180.925781 238.171875 C 175.753906 238.171875 172.515625 234.054688 174.300781 229.742188 C 175.082031 227.84375 174.847656 227.640625 170.007812 226.019531 C 155.226562 221.058594 143.917969 209.949219 138.75 195.296875 C 134.753906 183.972656 136.511719 169.230469 142.921875 160.324219 C 145.105469 157.292969 145.136719 157.03125 144.121094 151.226562 C 143.542969 147.941406 143.230469 142.648438 143.425781 139.46875 Z M 143.425781 139.46875 " fill-opacity="1" fill-rule="nonzero"/></g><g clip-path="url(#af68f91cd9)"><path fill="#ffffff" d="M 138.261719 222.308594 C 136.132812 219.367188 131.816406 218.574219 128.621094 220.535156 C 125.425781 222.496094 124.5625 226.464844 126.691406 229.402344 C 128.265625 231.570312 130.148438 233.355469 131.746094 234.824219 C 132.039062 235.09375 132.324219 235.355469 132.605469 235.609375 C 133.941406 236.835938 135.125 237.914062 136.3125 239.195312 C 138.9375 242.03125 141.554688 245.847656 143.042969 252.695312 C 143.707031 255.742188 146.089844 257.386719 147.410156 258.105469 C 148.84375 258.882812 150.40625 259.339844 151.695312 259.640625 C 154.332031 260.25 157.527344 260.566406 160.558594 260.753906 C 163.890625 260.957031 167.5 261.019531 170.726562 261.039062 C 170.726562 264.570312 173.839844 267.433594 177.679688 267.433594 C 181.515625 267.433594 184.632812 264.570312 184.632812 261.039062 L 184.632812 254.644531 C 184.632812 251.113281 181.515625 248.25 177.679688 248.25 C 177.023438 248.25 176.3125 248.25 175.5625 248.253906 C 171.480469 248.265625 166.164062 248.28125 161.476562 247.996094 C 159.21875 247.855469 157.363281 247.660156 156 247.425781 C 153.90625 239.855469 150.515625 234.8125 146.902344 230.910156 C 145.300781 229.183594 143.648438 227.675781 142.300781 226.449219 C 142.050781 226.21875 141.808594 226 141.582031 225.789062 C 140.027344 224.351562 139.011719 223.335938 138.261719 222.308594 Z M 138.261719 222.308594 " fill-opacity="1" fill-rule="nonzero"/></g></svg>