<svg xmlns="http://www.w3.org/2000/svg" xmlns:xlink="http://www.w3.org/1999/xlink" width="200" zoomAndPan="magnify" viewBox="0 0 150 74.999997" height="100" preserveAspectRatio="xMidYMid meet" version="1.0"><defs><g/></defs><rect x="-15" width="180" fill="#ffffff" y="-7.5" height="89.999996" fill-opacity="1"/><rect x="-15" width="180" fill="#ffffff" y="-7.5" height="89.999996" fill-opacity="1"/><g fill="#000000" fill-opacity="1"><g transform="translate(7.1843, 44.249993)"><g><path d="M 6.65625 -22.140625 L 6.65625 -4.421875 L 14.265625 -4.421875 L 14.265625 0 L 1.609375 0 L 1.609375 -22.140625 Z M 6.65625 -22.140625 "/></g></g></g><g fill="#000000" fill-opacity="1"><g transform="translate(20.246684, 44.249993)"><g><path d="M 6.09375 -13.765625 L 6.09375 -7.21875 C 6.09375 -5.851562 6.296875 -4.882812 6.703125 -4.3125 C 7.117188 -3.738281 7.816406 -3.453125 8.796875 -3.453125 C 9.785156 -3.453125 10.484375 -3.738281 10.890625 -4.3125 C 11.304688 -4.882812 11.515625 -5.851562 11.515625 -7.21875 L 11.515625 -13.765625 L 16.25 -13.765625 L 16.25 -6.0625 C 16.25 -3.769531 15.65625 -2.117188 14.46875 -1.109375 C 13.28125 -0.0976562 11.390625 0.40625 8.796875 0.40625 C 6.203125 0.40625 4.3125 -0.0976562 3.125 -1.109375 C 1.9375 -2.117188 1.34375 -3.769531 1.34375 -6.0625 L 1.34375 -13.765625 Z M 6.09375 -13.765625 "/></g></g></g><g fill="#000000" fill-opacity="1"><g transform="translate(35.75007, 44.249993)"><g><path d="M 8.9375 -10.28125 C 8.039062 -10.28125 7.269531 -9.945312 6.625 -9.28125 C 5.976562 -8.625 5.65625 -7.828125 5.65625 -6.890625 C 5.65625 -5.941406 5.976562 -5.132812 6.625 -4.46875 C 7.269531 -3.8125 8.039062 -3.484375 8.9375 -3.484375 C 9.363281 -3.484375 9.769531 -3.535156 10.15625 -3.640625 C 10.539062 -3.753906 10.820312 -3.863281 11 -3.96875 L 11.234375 -4.125 L 12.84375 -0.828125 C 12.71875 -0.742188 12.539062 -0.632812 12.3125 -0.5 C 12.09375 -0.363281 11.585938 -0.179688 10.796875 0.046875 C 10.003906 0.285156 9.148438 0.40625 8.234375 0.40625 C 6.210938 0.40625 4.4375 -0.300781 2.90625 -1.71875 C 1.375 -3.144531 0.609375 -4.851562 0.609375 -6.84375 C 0.609375 -8.84375 1.375 -10.5625 2.90625 -12 C 4.4375 -13.445312 6.210938 -14.171875 8.234375 -14.171875 C 9.148438 -14.171875 9.988281 -14.0625 10.75 -13.84375 C 11.519531 -13.625 12.066406 -13.410156 12.390625 -13.203125 L 12.84375 -12.875 L 11.234375 -9.625 C 10.648438 -10.0625 9.882812 -10.28125 8.9375 -10.28125 Z M 8.9375 -10.28125 "/></g></g></g><g fill="#000000" fill-opacity="1"><g transform="translate(46.827455, 44.249993)"><g><path d="M 2.546875 -1.703125 C 1.253906 -3.109375 0.609375 -4.828125 0.609375 -6.859375 C 0.609375 -8.898438 1.253906 -10.628906 2.546875 -12.046875 C 3.835938 -13.460938 5.472656 -14.171875 7.453125 -14.171875 C 9.273438 -14.171875 10.78125 -13.597656 11.96875 -12.453125 L 11.96875 -13.765625 L 16.71875 -13.765625 L 16.71875 0 L 12.015625 0 L 12.015625 -1.5625 L 11.96875 -1.5625 C 10.78125 -0.25 9.273438 0.40625 7.453125 0.40625 C 5.472656 0.40625 3.835938 -0.296875 2.546875 -1.703125 Z M 6.578125 -9.203125 C 5.960938 -8.597656 5.65625 -7.820312 5.65625 -6.875 C 5.65625 -5.925781 5.953125 -5.148438 6.546875 -4.546875 C 7.140625 -3.953125 7.914062 -3.65625 8.875 -3.65625 C 9.8125 -3.65625 10.578125 -3.957031 11.171875 -4.5625 C 11.773438 -5.164062 12.078125 -5.9375 12.078125 -6.875 C 12.078125 -7.820312 11.765625 -8.597656 11.140625 -9.203125 C 10.523438 -9.804688 9.769531 -10.109375 8.875 -10.109375 C 7.96875 -10.109375 7.203125 -9.804688 6.578125 -9.203125 Z M 6.578125 -9.203125 "/></g></g></g><g fill="#000000" fill-opacity="1"><g transform="translate(63.05509, 44.249993)"><g><path d="M 7.59375 -14.171875 C 8.375 -14.171875 9.148438 -14.078125 9.921875 -13.890625 C 10.691406 -13.710938 11.265625 -13.535156 11.640625 -13.359375 L 12.203125 -13.09375 L 10.65625 -9.984375 C 9.582031 -10.554688 8.5625 -10.84375 7.59375 -10.84375 C 7.050781 -10.84375 6.664062 -10.78125 6.4375 -10.65625 C 6.21875 -10.539062 6.109375 -10.320312 6.109375 -10 C 6.109375 -9.9375 6.117188 -9.867188 6.140625 -9.796875 C 6.160156 -9.722656 6.195312 -9.65625 6.25 -9.59375 C 6.300781 -9.53125 6.347656 -9.472656 6.390625 -9.421875 C 6.441406 -9.378906 6.519531 -9.332031 6.625 -9.28125 C 6.726562 -9.226562 6.8125 -9.1875 6.875 -9.15625 C 6.9375 -9.132812 7.039062 -9.09375 7.1875 -9.03125 C 7.332031 -8.976562 7.441406 -8.9375 7.515625 -8.90625 C 7.585938 -8.882812 7.707031 -8.847656 7.875 -8.796875 C 8.039062 -8.742188 8.171875 -8.707031 8.265625 -8.6875 C 8.816406 -8.53125 9.296875 -8.351562 9.703125 -8.15625 C 10.117188 -7.957031 10.554688 -7.6875 11.015625 -7.34375 C 11.472656 -7.007812 11.828125 -6.582031 12.078125 -6.0625 C 12.328125 -5.539062 12.453125 -4.953125 12.453125 -4.296875 C 12.453125 -1.160156 10.273438 0.40625 5.921875 0.40625 C 4.941406 0.40625 4.007812 0.253906 3.125 -0.046875 C 2.238281 -0.359375 1.597656 -0.664062 1.203125 -0.96875 L 0.609375 -1.453125 L 2.546875 -4.6875 C 2.691406 -4.5625 2.878906 -4.414062 3.109375 -4.25 C 3.335938 -4.082031 3.753906 -3.847656 4.359375 -3.546875 C 4.972656 -3.253906 5.503906 -3.109375 5.953125 -3.109375 C 6.941406 -3.109375 7.4375 -3.441406 7.4375 -4.109375 C 7.4375 -4.410156 7.3125 -4.644531 7.0625 -4.8125 C 6.8125 -4.988281 6.382812 -5.179688 5.78125 -5.390625 C 5.175781 -5.609375 4.707031 -5.804688 4.375 -5.984375 C 3.507812 -6.429688 2.828125 -6.9375 2.328125 -7.5 C 1.828125 -8.0625 1.578125 -8.804688 1.578125 -9.734375 C 1.578125 -11.128906 2.117188 -12.21875 3.203125 -13 C 4.285156 -13.78125 5.75 -14.171875 7.59375 -14.171875 Z M 7.59375 -14.171875 "/></g></g></g><g fill="#000000" fill-opacity="1"><g transform="translate(74.159297, 44.249993)"><g/></g></g><g fill="#000000" fill-opacity="1"><g transform="translate(79.389, 44.249993)"><g><path d="M 19.90625 0 L 18.859375 -13.125 L 18.71875 -13.125 L 14.1875 -0.140625 L 11.1875 -0.140625 L 6.65625 -13.125 L 6.515625 -13.125 L 5.46875 0 L 0.421875 0 L 2.421875 -22.140625 L 7.78125 -22.140625 L 12.6875 -9.359375 L 17.59375 -22.140625 L 22.96875 -22.140625 L 24.953125 0 Z M 19.90625 0 "/></g></g></g><g fill="#000000" fill-opacity="1"><g transform="translate(102.671414, 44.249993)"><g><path d="M 2.90625 -1.625 C 1.375 -2.988281 0.609375 -4.734375 0.609375 -6.859375 C 0.609375 -8.992188 1.40625 -10.742188 3 -12.109375 C 4.59375 -13.484375 6.5625 -14.171875 8.90625 -14.171875 C 11.21875 -14.171875 13.160156 -13.476562 14.734375 -12.09375 C 16.316406 -10.71875 17.109375 -8.972656 17.109375 -6.859375 C 17.109375 -4.753906 16.332031 -3.015625 14.78125 -1.640625 C 13.238281 -0.273438 11.28125 0.40625 8.90625 0.40625 C 6.4375 0.40625 4.4375 -0.269531 2.90625 -1.625 Z M 6.578125 -9.203125 C 5.960938 -8.597656 5.65625 -7.820312 5.65625 -6.875 C 5.65625 -5.925781 5.953125 -5.148438 6.546875 -4.546875 C 7.140625 -3.953125 7.914062 -3.65625 8.875 -3.65625 C 9.8125 -3.65625 10.578125 -3.957031 11.171875 -4.5625 C 11.773438 -5.164062 12.078125 -5.9375 12.078125 -6.875 C 12.078125 -7.820312 11.765625 -8.597656 11.140625 -9.203125 C 10.523438 -9.804688 9.769531 -10.109375 8.875 -10.109375 C 7.96875 -10.109375 7.203125 -9.804688 6.578125 -9.203125 Z M 6.578125 -9.203125 "/></g></g></g><g fill="#000000" fill-opacity="1"><g transform="translate(118.308929, 44.249993)"><g><path d="M 2.421875 -13.765625 L 2.421875 -18.890625 L 7.15625 -18.890625 L 7.15625 -13.765625 L 10.0625 -13.765625 L 10.0625 -10.140625 L 7.15625 -10.140625 L 7.15625 -5.765625 C 7.15625 -4.492188 7.515625 -3.859375 8.234375 -3.859375 C 8.410156 -3.859375 8.597656 -3.894531 8.796875 -3.96875 C 8.992188 -4.039062 9.144531 -4.113281 9.25 -4.1875 L 9.421875 -4.296875 L 10.59375 -0.453125 C 9.570312 0.117188 8.410156 0.40625 7.109375 0.40625 C 6.210938 0.40625 5.441406 0.25 4.796875 -0.0625 C 4.160156 -0.375 3.675781 -0.796875 3.34375 -1.328125 C 3.007812 -1.859375 2.769531 -2.410156 2.625 -2.984375 C 2.488281 -3.566406 2.421875 -4.191406 2.421875 -4.859375 L 2.421875 -10.140625 L 0.421875 -10.140625 L 0.421875 -13.765625 Z M 2.421875 -13.765625 "/></g></g></g><g fill="#000000" fill-opacity="1"><g transform="translate(126.81119, 44.249993)"><g><path d="M 2.546875 -1.703125 C 1.253906 -3.109375 0.609375 -4.828125 0.609375 -6.859375 C 0.609375 -8.898438 1.253906 -10.628906 2.546875 -12.046875 C 3.835938 -13.460938 5.472656 -14.171875 7.453125 -14.171875 C 9.273438 -14.171875 10.78125 -13.597656 11.96875 -12.453125 L 11.96875 -13.765625 L 16.71875 -13.765625 L 16.71875 0 L 12.015625 0 L 12.015625 -1.5625 L 11.96875 -1.5625 C 10.78125 -0.25 9.273438 0.40625 7.453125 0.40625 C 5.472656 0.40625 3.835938 -0.296875 2.546875 -1.703125 Z M 6.578125 -9.203125 C 5.960938 -8.597656 5.65625 -7.820312 5.65625 -6.875 C 5.65625 -5.925781 5.953125 -5.148438 6.546875 -4.546875 C 7.140625 -3.953125 7.914062 -3.65625 8.875 -3.65625 C 9.8125 -3.65625 10.578125 -3.957031 11.171875 -4.5625 C 11.773438 -5.164062 12.078125 -5.9375 12.078125 -6.875 C 12.078125 -7.820312 11.765625 -8.597656 11.140625 -9.203125 C 10.523438 -9.804688 9.769531 -10.109375 8.875 -10.109375 C 7.96875 -10.109375 7.203125 -9.804688 6.578125 -9.203125 Z M 6.578125 -9.203125 "/></g></g></g></svg>