<svg xmlns="http://www.w3.org/2000/svg" xmlns:xlink="http://www.w3.org/1999/xlink" width="500" zoomAndPan="magnify" viewBox="0 0 375 374.999991" height="500" preserveAspectRatio="xMidYMid meet" version="1.0"><defs><g/></defs><g fill="#000000" fill-opacity="1"><g transform="translate(109.5926, 169.286196)"><g><path d="M 7.71875 -25.6875 L 7.71875 -5.140625 L 16.5625 -5.140625 L 16.5625 0 L 1.875 0 L 1.875 -25.6875 Z M 7.71875 -25.6875 "/></g></g></g><g fill="#000000" fill-opacity="1"><g transform="translate(124.756452, 169.286196)"><g><path d="M 7.0625 -15.96875 L 7.0625 -8.375 C 7.0625 -6.800781 7.300781 -5.679688 7.78125 -5.015625 C 8.257812 -4.347656 9.066406 -4.015625 10.203125 -4.015625 C 11.347656 -4.015625 12.160156 -4.347656 12.640625 -5.015625 C 13.117188 -5.679688 13.359375 -6.800781 13.359375 -8.375 L 13.359375 -15.96875 L 18.875 -15.96875 L 18.875 -7.03125 C 18.875 -4.375 18.179688 -2.457031 16.796875 -1.28125 C 15.421875 -0.113281 13.226562 0.46875 10.21875 0.46875 C 7.207031 0.46875 5.007812 -0.113281 3.625 -1.28125 C 2.25 -2.457031 1.5625 -4.375 1.5625 -7.03125 L 1.5625 -15.96875 Z M 7.0625 -15.96875 "/></g></g></g><g fill="#000000" fill-opacity="1"><g transform="translate(142.753847, 169.286196)"><g><path d="M 10.375 -11.921875 C 9.332031 -11.921875 8.4375 -11.535156 7.6875 -10.765625 C 6.945312 -10.003906 6.578125 -9.082031 6.578125 -8 C 6.578125 -6.90625 6.945312 -5.972656 7.6875 -5.203125 C 8.4375 -4.429688 9.332031 -4.046875 10.375 -4.046875 C 10.863281 -4.046875 11.332031 -4.109375 11.78125 -4.234375 C 12.226562 -4.359375 12.554688 -4.484375 12.765625 -4.609375 L 13.046875 -4.796875 L 14.921875 -0.96875 C 14.773438 -0.863281 14.570312 -0.734375 14.3125 -0.578125 C 14.050781 -0.421875 13.457031 -0.207031 12.53125 0.0625 C 11.601562 0.332031 10.613281 0.46875 9.5625 0.46875 C 7.21875 0.46875 5.15625 -0.351562 3.375 -2 C 1.601562 -3.65625 0.71875 -5.632812 0.71875 -7.9375 C 0.71875 -10.257812 1.601562 -12.253906 3.375 -13.921875 C 5.15625 -15.597656 7.21875 -16.4375 9.5625 -16.4375 C 10.613281 -16.4375 11.585938 -16.3125 12.484375 -16.0625 C 13.378906 -15.8125 14.015625 -15.566406 14.390625 -15.328125 L 14.921875 -14.953125 L 13.046875 -11.171875 C 12.359375 -11.671875 11.46875 -11.921875 10.375 -11.921875 Z M 10.375 -11.921875 "/></g></g></g><g fill="#000000" fill-opacity="1"><g transform="translate(155.613504, 169.286196)"><g><path d="M 2.953125 -1.96875 C 1.460938 -3.601562 0.71875 -5.601562 0.71875 -7.96875 C 0.71875 -10.332031 1.460938 -12.332031 2.953125 -13.96875 C 4.453125 -15.613281 6.351562 -16.4375 8.65625 -16.4375 C 10.769531 -16.4375 12.515625 -15.773438 13.890625 -14.453125 L 13.890625 -15.96875 L 19.40625 -15.96875 L 19.40625 0 L 13.953125 0 L 13.953125 -1.8125 L 13.890625 -1.8125 C 12.515625 -0.289062 10.769531 0.46875 8.65625 0.46875 C 6.351562 0.46875 4.453125 -0.34375 2.953125 -1.96875 Z M 7.640625 -10.671875 C 6.929688 -9.972656 6.578125 -9.070312 6.578125 -7.96875 C 6.578125 -6.875 6.914062 -5.976562 7.59375 -5.28125 C 8.28125 -4.582031 9.1875 -4.234375 10.3125 -4.234375 C 11.382812 -4.234375 12.269531 -4.585938 12.96875 -5.296875 C 13.664062 -6.003906 14.015625 -6.894531 14.015625 -7.96875 C 14.015625 -9.070312 13.65625 -9.972656 12.9375 -10.671875 C 12.21875 -11.378906 11.34375 -11.734375 10.3125 -11.734375 C 9.25 -11.734375 8.359375 -11.378906 7.640625 -10.671875 Z M 7.640625 -10.671875 "/></g></g></g><g fill="#000000" fill-opacity="1"><g transform="translate(174.45162, 169.286196)"><g><path d="M 8.8125 -16.4375 C 9.726562 -16.4375 10.628906 -16.332031 11.515625 -16.125 C 12.410156 -15.914062 13.078125 -15.710938 13.515625 -15.515625 L 14.171875 -15.203125 L 12.359375 -11.578125 C 11.117188 -12.242188 9.9375 -12.578125 8.8125 -12.578125 C 8.1875 -12.578125 7.742188 -12.507812 7.484375 -12.375 C 7.222656 -12.238281 7.09375 -11.984375 7.09375 -11.609375 C 7.09375 -11.523438 7.101562 -11.441406 7.125 -11.359375 C 7.144531 -11.273438 7.1875 -11.195312 7.25 -11.125 C 7.3125 -11.0625 7.367188 -11.003906 7.421875 -10.953125 C 7.472656 -10.898438 7.5625 -10.84375 7.6875 -10.78125 C 7.8125 -10.71875 7.910156 -10.671875 7.984375 -10.640625 C 8.054688 -10.609375 8.175781 -10.5625 8.34375 -10.5 C 8.507812 -10.4375 8.632812 -10.390625 8.71875 -10.359375 C 8.800781 -10.328125 8.941406 -10.28125 9.140625 -10.21875 C 9.335938 -10.15625 9.488281 -10.113281 9.59375 -10.09375 C 10.238281 -9.90625 10.796875 -9.695312 11.265625 -9.46875 C 11.742188 -9.238281 12.25 -8.925781 12.78125 -8.53125 C 13.3125 -8.132812 13.722656 -7.632812 14.015625 -7.03125 C 14.304688 -6.4375 14.453125 -5.753906 14.453125 -4.984375 C 14.453125 -1.347656 11.925781 0.46875 6.875 0.46875 C 5.738281 0.46875 4.65625 0.289062 3.625 -0.0625 C 2.601562 -0.414062 1.863281 -0.769531 1.40625 -1.125 L 0.71875 -1.6875 L 2.953125 -5.453125 C 3.117188 -5.304688 3.335938 -5.132812 3.609375 -4.9375 C 3.878906 -4.738281 4.367188 -4.46875 5.078125 -4.125 C 5.785156 -3.78125 6.394531 -3.609375 6.90625 -3.609375 C 8.050781 -3.609375 8.625 -3.992188 8.625 -4.765625 C 8.625 -5.117188 8.476562 -5.394531 8.1875 -5.59375 C 7.894531 -5.789062 7.398438 -6.015625 6.703125 -6.265625 C 6.015625 -6.515625 5.472656 -6.738281 5.078125 -6.9375 C 4.078125 -7.457031 3.285156 -8.046875 2.703125 -8.703125 C 2.128906 -9.359375 1.84375 -10.222656 1.84375 -11.296875 C 1.84375 -12.921875 2.46875 -14.179688 3.71875 -15.078125 C 4.976562 -15.984375 6.675781 -16.4375 8.8125 -16.4375 Z M 8.8125 -16.4375 "/></g></g></g><g fill="#000000" fill-opacity="1"><g transform="translate(187.342418, 169.286196)"><g/></g></g><g fill="#000000" fill-opacity="1"><g transform="translate(193.414036, 169.286196)"><g><path d="M 23.109375 0 L 21.890625 -15.234375 L 21.734375 -15.234375 L 16.46875 -0.15625 L 12.984375 -0.15625 L 7.71875 -15.234375 L 7.5625 -15.234375 L 6.359375 0 L 0.5 0 L 2.796875 -25.6875 L 9.03125 -25.6875 L 14.734375 -10.875 L 20.421875 -25.6875 L 26.65625 -25.6875 L 28.953125 0 Z M 23.109375 0 "/></g></g></g><g fill="#000000" fill-opacity="1"><g transform="translate(220.441391, 169.286196)"><g><path d="M 3.375 -1.890625 C 1.601562 -3.472656 0.71875 -5.5 0.71875 -7.96875 C 0.71875 -10.4375 1.640625 -12.460938 3.484375 -14.046875 C 5.335938 -15.640625 7.625 -16.4375 10.34375 -16.4375 C 13.019531 -16.4375 15.273438 -15.632812 17.109375 -14.03125 C 18.953125 -12.4375 19.875 -10.414062 19.875 -7.96875 C 19.875 -5.519531 18.972656 -3.5 17.171875 -1.90625 C 15.378906 -0.320312 13.101562 0.46875 10.34375 0.46875 C 7.476562 0.46875 5.15625 -0.316406 3.375 -1.890625 Z M 7.640625 -10.671875 C 6.929688 -9.972656 6.578125 -9.070312 6.578125 -7.96875 C 6.578125 -6.875 6.914062 -5.976562 7.59375 -5.28125 C 8.28125 -4.582031 9.1875 -4.234375 10.3125 -4.234375 C 11.382812 -4.234375 12.269531 -4.585938 12.96875 -5.296875 C 13.664062 -6.003906 14.015625 -6.894531 14.015625 -7.96875 C 14.015625 -9.070312 13.65625 -9.972656 12.9375 -10.671875 C 12.21875 -11.378906 11.34375 -11.734375 10.3125 -11.734375 C 9.25 -11.734375 8.359375 -11.378906 7.640625 -10.671875 Z M 7.640625 -10.671875 "/></g></g></g><g fill="#000000" fill-opacity="1"><g transform="translate(238.594473, 169.286196)"><g><path d="M 2.796875 -15.96875 L 2.796875 -21.921875 L 8.3125 -21.921875 L 8.3125 -15.96875 L 11.671875 -15.96875 L 11.671875 -11.765625 L 8.3125 -11.765625 L 8.3125 -6.6875 C 8.3125 -5.21875 8.726562 -4.484375 9.5625 -4.484375 C 9.769531 -4.484375 9.988281 -4.523438 10.21875 -4.609375 C 10.445312 -4.691406 10.625 -4.773438 10.75 -4.859375 L 10.9375 -4.984375 L 12.296875 -0.53125 C 11.117188 0.132812 9.769531 0.46875 8.25 0.46875 C 7.207031 0.46875 6.3125 0.285156 5.5625 -0.078125 C 4.820312 -0.441406 4.257812 -0.925781 3.875 -1.53125 C 3.488281 -2.144531 3.210938 -2.789062 3.046875 -3.46875 C 2.878906 -4.144531 2.796875 -4.867188 2.796875 -5.640625 L 2.796875 -11.765625 L 0.5 -11.765625 L 0.5 -15.96875 Z M 2.796875 -15.96875 "/></g></g></g><g fill="#000000" fill-opacity="1"><g transform="translate(248.464901, 169.286196)"><g><path d="M 2.953125 -1.96875 C 1.460938 -3.601562 0.71875 -5.601562 0.71875 -7.96875 C 0.71875 -10.332031 1.460938 -12.332031 2.953125 -13.96875 C 4.453125 -15.613281 6.351562 -16.4375 8.65625 -16.4375 C 10.769531 -16.4375 12.515625 -15.773438 13.890625 -14.453125 L 13.890625 -15.96875 L 19.40625 -15.96875 L 19.40625 0 L 13.953125 0 L 13.953125 -1.8125 L 13.890625 -1.8125 C 12.515625 -0.289062 10.769531 0.46875 8.65625 0.46875 C 6.351562 0.46875 4.453125 -0.34375 2.953125 -1.96875 Z M 7.640625 -10.671875 C 6.929688 -9.972656 6.578125 -9.070312 6.578125 -7.96875 C 6.578125 -6.875 6.914062 -5.976562 7.59375 -5.28125 C 8.28125 -4.582031 9.1875 -4.234375 10.3125 -4.234375 C 11.382812 -4.234375 12.269531 -4.585938 12.96875 -5.296875 C 13.664062 -6.003906 14.015625 -6.894531 14.015625 -7.96875 C 14.015625 -9.070312 13.65625 -9.972656 12.9375 -10.671875 C 12.21875 -11.378906 11.34375 -11.734375 10.3125 -11.734375 C 9.25 -11.734375 8.359375 -11.378906 7.640625 -10.671875 Z M 7.640625 -10.671875 "/></g></g></g></svg>